<svg width="136" height="136" viewBox="0 0 136 136" fill="none" xmlns="http://www.w3.org/2000/svg">
<rect x="58.6901" y="67.8818" width="17" height="61" rx="5.5" transform="rotate(135 58.6901 67.8818)" fill="black" stroke="#4285F4" stroke-width="5"/>
<rect x="25.4561" y="77.0746" width="17" height="31" rx="5.5" transform="rotate(45 25.4561 77.0746)" fill="black" stroke="#4285F4" stroke-width="5"/>
<rect x="3.53553" width="17" height="31" rx="5.5" transform="matrix(0.707107 0.707107 0.707107 -0.707107 95.7875 44.1689)" fill="black" stroke="#FBBC04" stroke-width="5"/>
<rect y="3.53553" width="17" height="61" rx="5.5" transform="matrix(-0.707107 0.707107 0.707107 0.707107 86.5952 53.3617)" fill="black" stroke="#FBBC04" stroke-width="5"/>
<rect y="3.53553" width="17" height="31" rx="5.5" transform="matrix(-0.707107 0.707107 0.707107 0.707107 86.5952 95.7875)" fill="black" stroke="#EA4335" stroke-width="5"/>
<rect x="-3.53553" width="17" height="61" rx="5.5" transform="matrix(-0.707107 -0.707107 -0.707107 0.707107 77.4029 86.5957)" fill="black" stroke="#EA4335" stroke-width="5"/>
<rect x="67.8813" y="58.6901" width="17" height="61" rx="5.5" transform="rotate(-135 67.8813 58.6901)" fill="black" stroke="#34A853" stroke-width="5"/>
<rect x="58.6901" y="25.4561" width="17" height="31" rx="5.5" transform="rotate(135 58.6901 25.4561)" fill="black" stroke="#34A853" stroke-width="5"/>
</svg>
